<svg width="18" height="19" viewBox="0 0 18 19" fill="none" xmlns="http://www.w3.org/2000/svg">
<path d="M0 17.8125C0 18.4683 0.503683 19 1.125 19H16.875C17.4963 19 18 18.4683 18 17.8125C18 17.1567 17.4963 16.625 16.875 16.625H1.125C0.503683 16.625 0 17.1567 0 17.8125ZM9.79548 14.0506C9.57579 14.2825 9.28793 14.3985 9 14.3985C8.71214 14.3985 8.42414 14.2825 8.20452 14.0506L4.21857 9.8433C3.77923 9.37954 3.77923 8.62767 4.21857 8.16391C4.65792 7.70016 5.37022 7.70016 5.80957 8.16391L7.875 10.3441V1.1875C7.875 0.531666 8.37868 0 9 0C9.62132 0 10.125 0.531666 10.125 1.1875V10.3441L12.1904 8.16391C12.6298 7.70016 13.3421 7.70016 13.7814 8.16391C14.2208 8.62767 14.2208 9.37954 13.7814 9.8433L9.79548 14.0506Z" fill="#EB3500"/>
</svg>
