<svg width="141" height="109" viewBox="0 0 141 109" fill="none" xmlns="http://www.w3.org/2000/svg">
<path fill-rule="evenodd" clip-rule="evenodd" d="M59.0984 0.442952C48.0201 2.43725 36.6825 8.72105 28.8085 17.2301C25.4241 20.8874 21.0403 26.8697 21.0403 27.8306C21.0403 28.0901 25.2768 28.3031 30.4539 28.3031H39.8682L36.8285 25.2153L33.7888 22.1276L35.6138 20.1989C38.3861 17.2703 44.593 13.0106 49.0053 11.0088C54.6329 8.45543 59.4722 7.28833 66.215 6.8574C82.2637 5.83208 97.6733 13.0688 107.677 26.3292C109.18 28.3229 109.335 28.3749 113.174 28.1867L117.124 27.9935L114.196 23.6594C107.096 13.1505 96.1039 5.28412 83.4346 1.64659C78.2964 0.170524 64.4216 -0.515499 59.0984 0.442952ZM60.8584 22.7158C52.0283 24.6024 46.2094 31.2341 46.1747 39.4534C46.1537 44.4054 47.8474 48.2702 51.4762 51.5505C54.7288 54.4902 58.7327 56.2269 67.6098 58.55C77.8261 61.2229 81.0168 62.7045 82.0905 65.2746C83.8684 69.5332 80.8664 74.4963 75.6329 75.9507C68.4916 77.9351 60.7612 75.7229 57.9263 70.883C57.047 69.3821 56.1633 67.3327 55.9628 66.3291L55.5983 64.5044L50.8506 64.6939C42.9741 65.0084 43.2761 64.801 44.3009 69.1964C47.0559 81.0123 55.7709 87.1011 69.9279 87.1011C84.4538 87.1011 93.6069 80.3381 94.5222 68.9283C95.0036 62.9256 93.4924 58.6094 89.5158 54.6308C85.8214 50.935 83.1357 49.7617 70.902 46.5C60.0731 43.6129 58.1702 42.3696 58.1702 38.1829C58.1702 34.4234 62.6561 32.3529 69.9985 32.7244C75.6329 33.0086 78.0705 34.4785 79.3676 38.3711C80.1108 40.6026 80.4889 40.9902 81.8918 40.9573C82.7996 40.9357 85.5293 40.8663 87.9582 40.8026L92.3742 40.6862L91.993 37.9037C91.1186 31.5202 86.814 26.3496 80.2754 23.829C76.6175 22.4192 65.2886 21.7697 60.8584 22.7158ZM0 54.5373V77.8354H4.33182H8.66364V67.929V58.0225H11.7887C13.5072 58.0225 15.7053 58.4324 16.6732 58.9326C18.6794 59.971 22.2959 64.601 27.2193 72.4346L30.6136 77.8354H35.4188C38.0618 77.8354 40.224 77.6584 40.224 77.4417C40.224 76.2665 31.0158 62.2371 28.629 59.7747L25.8257 56.8832L28.4959 56.0827C36.8824 53.5689 39.781 43.1578 34.131 35.8419C31.4589 32.382 29.0418 31.8712 13.769 31.5388L0 31.2391V54.5373ZM98.5576 32.1728C98.7203 32.5988 100.719 37.9619 102.999 44.0915C105.279 50.2211 109.014 60.2514 111.299 66.3811L115.453 77.5259L119.843 77.706C122.996 77.8361 124.319 77.6615 124.537 77.0869C125.452 74.687 132.27 56.2127 135.801 46.5681C138.045 40.4385 140.154 34.7831 140.487 34.0011C141.548 31.5115 141.276 31.3369 136.624 31.5264L132.154 31.7084L130.489 36.3521C129.574 38.9061 126.948 46.2895 124.654 52.7597C122.36 59.2298 120.293 64.7428 120.06 65.0103C119.827 65.2784 116.902 57.825 113.558 48.4479L107.479 31.3988H102.87C99.4382 31.3988 98.3373 31.5963 98.5576 32.1728ZM26.145 40.2168C28.194 41.561 28.9291 44.8128 27.7447 47.2894C26.5615 49.7623 23.7644 50.5171 15.6255 50.558L8.66364 50.5926V44.6487V38.7042L16.5822 38.9216C22.8046 39.0918 24.8529 39.3692 26.145 40.2168ZM21.0403 81.2191C21.0403 82.1157 25.2725 87.9332 28.7045 91.7547C33.2127 96.7748 40.9772 102.279 47.4192 105.022C54.7715 108.152 59.9128 109.072 69.6185 108.996C77.0346 108.937 79.0656 108.694 83.7205 107.308C96.3254 103.556 105.95 96.7314 113.934 85.8845C114.811 84.6926 115.86 83.0908 116.265 82.3243L117.002 80.9312H107.567H98.1312L101.16 84.0084C104.183 87.0782 104.187 87.0881 102.997 88.4038C98.5854 93.2809 88.9731 98.631 80.7575 100.783C74.003 102.551 63.4587 102.575 56.8483 100.836C46.421 98.0923 35.1651 90.4328 30.0226 82.5806C29.0399 81.0792 28.5882 80.9312 24.9915 80.9312C22.8182 80.9312 21.0403 81.0606 21.0403 81.2191Z" fill="#EB3500"/>
</svg>
