<svg width="1221" height="943" viewBox="0 0 1221 943" fill="none" xmlns="http://www.w3.org/2000/svg">
<path fill-rule="evenodd" clip-rule="evenodd" d="M511.767 3.83214C415.833 21.0856 317.655 75.4491 249.469 149.064C220.162 180.705 182.2 232.46 182.2 240.773C182.2 243.018 218.886 244.86 263.718 244.86H345.242L318.919 218.147L292.597 191.434L308.4 174.749C332.407 149.412 386.156 112.559 424.365 95.2415C473.098 73.1511 515.004 63.0541 573.393 59.3259C712.369 50.4555 845.809 113.063 932.434 227.784C945.456 245.032 946.79 245.482 980.036 243.853L1014.24 242.182L988.889 204.686C927.408 113.77 832.219 45.7149 722.508 14.2453C678.014 1.47527 557.864 -4.45978 511.767 3.83214ZM527.007 196.523C450.542 212.844 400.154 270.218 399.853 341.326C399.671 384.168 414.338 417.603 445.762 445.982C473.928 471.415 508.6 486.44 585.472 506.538C673.941 529.662 701.571 542.48 710.868 564.715C726.264 601.558 700.269 644.496 654.949 657.078C593.108 674.246 526.166 655.107 501.617 613.235C494.003 600.251 486.35 582.521 484.614 573.838L481.458 558.052L440.345 559.691C372.138 562.412 374.753 560.618 383.627 598.644C407.484 700.868 482.953 753.544 605.546 753.544C731.334 753.544 810.596 695.035 818.522 596.324C822.691 544.393 809.605 507.052 775.169 472.631C743.177 440.658 719.919 430.507 613.981 402.289C520.207 377.312 503.729 366.556 503.729 330.335C503.729 297.81 542.575 279.898 606.157 283.111C654.949 285.57 676.058 298.287 687.29 331.963C693.726 351.268 697 354.621 709.148 354.337C717.01 354.15 740.647 353.55 761.681 352.998L799.921 351.991L796.62 327.919C789.048 272.693 751.772 227.961 695.151 206.154C663.475 193.957 565.371 188.338 527.007 196.523ZM0 471.822V673.384H37.5117H75.0234V587.679V501.974H102.085C116.967 501.974 136.001 505.52 144.383 509.848C161.756 518.831 193.073 558.888 235.708 626.659L265.101 673.384H306.712C329.599 673.384 348.323 671.852 348.323 669.977C348.323 659.81 268.584 538.436 247.915 517.133L223.639 492.118L246.763 485.192C319.385 463.445 344.486 373.374 295.56 310.082C272.421 280.149 251.489 275.73 119.234 272.854L0 270.261V471.822ZM853.467 278.339C854.876 282.024 872.185 328.422 891.927 381.452C911.674 434.482 944.015 521.258 963.799 574.288L999.773 670.705L1037.79 672.264C1065.09 673.389 1076.55 671.878 1078.44 666.908C1086.36 646.146 1145.4 486.317 1175.98 402.878C1195.41 349.849 1213.68 300.922 1216.56 294.157C1225.75 272.618 1223.39 271.107 1183.1 272.747L1144.4 274.321L1129.98 314.495C1122.06 336.591 1099.32 400.468 1079.45 456.444C1059.58 512.42 1041.68 560.114 1039.67 562.428C1037.65 564.748 1012.32 500.266 983.364 419.141L930.725 271.643H890.812C861.092 271.643 851.559 273.352 853.467 278.339ZM226.405 347.931C244.148 359.56 250.514 387.693 240.257 409.119C230.011 430.513 205.789 437.042 135.31 437.396L75.0234 437.696V386.273V334.845L143.595 336.725C197.478 338.198 215.215 340.598 226.405 347.931ZM182.2 702.657C182.2 710.413 218.849 760.743 248.569 793.804C287.608 837.235 354.845 884.854 410.63 908.584C474.298 935.667 518.819 943.626 602.867 942.962C667.087 942.453 684.675 940.354 724.984 928.36C834.137 895.9 917.478 836.86 986.617 743.019C994.211 732.707 1003.3 718.85 1006.81 712.219L1013.19 700.166H931.486H849.774L876.006 726.788C902.178 753.346 902.216 753.432 891.911 764.814C853.708 807.008 770.469 853.294 699.326 871.908C640.834 887.211 549.525 887.415 492.282 872.368C401.986 848.634 304.515 782.368 259.983 714.436C251.473 701.447 247.561 700.166 216.416 700.166C197.596 700.166 182.2 701.286 182.2 702.657Z" fill="#D9D9D9" fill-opacity="0.03"/>
</svg>
