<svg width="21" height="15" viewBox="0 0 21 15" fill="none" xmlns="http://www.w3.org/2000/svg">
<path d="M18.75 0H2.25C1.65326 0 1.08097 0.237053 0.65901 0.65901C0.237053 1.08097 0 1.65326 0 2.25V12.75C0 13.3467 0.237053 13.919 0.65901 14.341C1.08097 14.7629 1.65326 15 2.25 15H18.75C19.3467 15 19.919 14.7629 20.341 14.341C20.7629 13.919 21 13.3467 21 12.75V2.25C21 1.65326 20.7629 1.08097 20.341 0.65901C19.919 0.237053 19.3467 0 18.75 0ZM18.429 1.5L10.8225 7.56375C10.605 7.76475 10.3942 7.76475 10.1355 7.527L2.571 1.5H18.429ZM18.75 13.5H2.25C2.05109 13.5 1.86032 13.421 1.71967 13.2803C1.57902 13.1397 1.5 12.9489 1.5 12.75V2.56425L9.15825 8.664C9.52303 9.01399 10.0073 9.21213 10.5128 9.21825C10.9919 9.21643 11.4521 9.03125 11.799 8.70075L19.5 2.565V12.75C19.5 12.9489 19.421 13.1397 19.2803 13.2803C19.1397 13.421 18.9489 13.5 18.75 13.5Z" fill="#EB3500"/>
</svg>
