<svg width="27" height="32" viewBox="0 0 27 32" fill="none" xmlns="http://www.w3.org/2000/svg">
<path d="M6.68713 20.5879C6.68713 20.0564 6.30496 19.7395 5.63066 19.7395C5.35532 19.7395 5.16884 19.7657 5.0713 19.7908V21.4959C5.18679 21.521 5.32877 21.5293 5.52446 21.5293C6.24319 21.5293 6.68713 21.179 6.68713 20.5879ZM10.8613 19.7574C10.5594 19.7574 10.3642 19.7825 10.2488 19.8086V23.5848C10.3643 23.611 10.5508 23.611 10.7194 23.611C11.9444 23.6193 12.7433 22.9687 12.7433 21.5901C12.752 20.3912 12.0239 19.7574 10.8613 19.7574Z" fill="white"/>
<path d="M18.6168 0H5.29678C3.35086 0 1.76708 1.52925 1.76708 3.40582V16H1.42233C0.636948 16 0 16.614 0 17.3724V25.6956C0 26.454 0.63688 27.068 1.42233 27.068H1.76708V28.5942C1.76708 30.4728 3.35086 32 5.29678 32H23.4713C25.416 32 27 30.4727 27 28.5942V8.06068L18.6168 0ZM3.73137 18.8745C4.14821 18.8065 4.73412 18.7553 5.55961 18.7553C6.39383 18.7553 6.98841 18.9089 7.38791 19.2176C7.76953 19.5084 8.02706 19.9885 8.02706 20.5534C8.02706 21.1182 7.83192 21.5984 7.47685 21.9237C7.01503 22.3432 6.33206 22.5315 5.53313 22.5315C5.35532 22.5315 5.19594 22.523 5.0713 22.5063V24.5702H3.73137V18.8745ZM23.4713 29.9142H5.29678C4.54331 29.9142 3.92975 29.3222 3.92975 28.5942V27.068H20.8722C21.6577 27.068 22.2946 26.454 22.2946 25.6956V17.3724C22.2946 16.614 21.6577 16 20.8722 16H3.92975V3.40582C3.92975 2.67986 4.54338 2.08783 5.29678 2.08783L17.8081 2.07522V6.53753C17.8081 7.84093 18.9041 8.89948 20.2559 8.89948L24.7862 8.88693L24.8372 28.5941C24.8372 29.3222 24.2247 29.9142 23.4713 29.9142ZM8.89107 24.544V18.8745C9.38804 18.7982 10.0358 18.7553 10.7194 18.7553C11.8554 18.7553 12.5921 18.9519 13.1694 19.3713C13.7905 19.817 14.1808 20.5273 14.1808 21.547C14.1808 22.6517 13.7639 23.4143 13.1866 23.8849C12.5568 24.3901 11.598 24.6297 10.4266 24.6297C9.72515 24.6297 9.22818 24.5868 8.89107 24.544ZM18.5778 21.1873V22.249H16.4297V24.5702H15.0719V18.7982H18.7285V19.8682H16.4297V21.1873H18.5778Z" fill="white"/>
</svg>
