<svg width="14" height="22" viewBox="0 0 14 22" fill="none" xmlns="http://www.w3.org/2000/svg">
<path d="M10.0638 22H3.94028C3.90191 21.9893 3.85805 21.9678 3.81968 21.9624C1.65972 21.6833 0.00959373 19.8902 0.0041116 17.7643C-0.00137053 13.2548 -0.00137053 8.74524 0.0041116 4.23572C0.00959373 2.44265 1.2047 0.826745 2.93157 0.252318C3.2605 0.144949 3.60587 0.0858956 3.94028 0C5.97964 0 8.02447 0 10.0638 0C10.1022 0.0107369 10.1461 0.0322108 10.1844 0.0375793C11.999 0.273792 13.4518 1.55686 13.8794 3.30698C13.9232 3.49488 13.9616 3.68277 14 3.8653V18.1293C13.989 18.1669 13.9671 18.2099 13.9616 18.2474C13.6985 19.9063 12.772 21.0659 11.1931 21.6994C10.8368 21.8443 10.4421 21.898 10.0638 21.9946V22ZM12.2512 11.0215C12.2512 8.80966 12.2512 6.59785 12.2512 4.38604C12.2512 2.83992 11.1109 1.71791 9.53206 1.71791C7.84905 1.71791 6.16603 1.71791 4.48302 1.71791C2.8932 1.71791 1.75291 2.83455 1.75291 4.39141C1.75291 8.79356 1.75291 13.1957 1.75291 17.6032C1.75291 19.1654 2.8932 20.2821 4.47753 20.2821C6.15507 20.2821 7.8326 20.2821 9.50465 20.2821C11.1109 20.2821 12.2457 19.1708 12.2457 17.5979C12.2457 15.4075 12.2457 13.2172 12.2457 11.0268L12.2512 11.0215Z" fill="#EB3500"/>
<path d="M6.5094 3C6.75391 3 6.99842 3 7.23822 3C7.67551 3.00624 8.00465 3.44271 7.99995 4.01013C7.99995 4.55885 7.67081 4.98909 7.24292 4.99532C6.74921 5.00156 6.25549 5.00156 5.76178 4.99532C5.32449 4.99532 4.99535 4.54638 5.00005 3.98519C5.00005 3.43648 5.32919 3.00624 5.75708 3C6.00629 3 6.25549 3 6.5047 3H6.5094Z" fill="#EB3500"/>
<path d="M6.50235 18.9972C6.25822 18.9972 6.01408 18.9972 5.77465 18.9972C5.33333 18.991 5.00469 18.5672 5 18.0062C5 17.4453 5.32864 17.009 5.76526 17.0028C6.25822 17.0028 6.75117 16.9965 7.24413 17.0028C7.67136 17.0028 7.99531 17.4391 8 17.9938C8 18.5422 7.67606 18.9848 7.25352 18.9972C7.00469 19.0035 6.75587 18.9972 6.50704 18.9972H6.50235Z" fill="#EB3500"/>
</svg>
