<svg width="20" height="22" viewBox="0 0 20 22" fill="none" xmlns="http://www.w3.org/2000/svg">
<path d="M20 17.6722V21.0833C20 21.3264 19.9042 21.5596 19.7337 21.7315C19.5633 21.9034 19.332 22 19.0909 22C18.8498 22 18.6186 21.9034 18.4481 21.7315C18.2776 21.5596 18.1818 21.3264 18.1818 21.0833V17.6722C18.1802 17.0368 17.9611 16.4215 17.5616 15.9302C17.1621 15.4388 16.6067 15.1015 15.9891 14.9753L9.82193 13.7313C9.61592 13.6898 9.43053 13.5776 9.29729 13.4138C9.16404 13.2501 9.09115 13.0448 9.09103 12.833V6.5141C9.09103 6.02092 8.76194 5.5809 8.34194 5.51306C8.211 5.48913 8.07644 5.49453 7.94779 5.5289C7.81915 5.56326 7.69958 5.62574 7.59756 5.71191C7.49554 5.79808 7.41357 5.90582 7.35746 6.0275C7.30134 6.14918 7.27246 6.28182 7.27286 6.41602V18.918C7.27283 19.0905 7.22453 19.2595 7.13352 19.4056C7.04251 19.5516 6.91248 19.6688 6.75838 19.7437C6.60428 19.8186 6.43236 19.8481 6.26237 19.8288C6.09238 19.8096 5.93123 19.7424 5.79742 19.6349L3.40018 17.7098C2.97927 17.3175 2.40473 17.3376 2.06383 17.7062C1.89968 17.8846 1.81207 18.1212 1.82008 18.3645C1.82808 18.6078 1.93104 18.838 2.10655 19.0051L3.35836 20.2225C3.53183 20.3914 3.63168 20.6228 3.63595 20.8659C3.64021 21.109 3.54853 21.3438 3.38109 21.5187C3.21364 21.6937 2.98414 21.7943 2.74307 21.7986C2.50201 21.8029 2.26912 21.7105 2.09565 21.5416L0.852932 20.3334C0.329563 19.8335 0.0234284 19.1453 0.00128959 18.4187C-0.0208492 17.6921 0.242804 16.9862 0.734752 16.4549C1.22895 15.9237 1.91172 15.6115 2.63361 15.5868C3.3555 15.5621 4.0577 15.8267 4.58653 16.3228L5.4547 17.0186V6.41602C5.45515 6.01649 5.54181 5.62185 5.70867 5.25947C5.87552 4.8971 6.11857 4.57568 6.42095 4.31751C6.72333 4.05935 7.07779 3.87062 7.45975 3.76443C7.8417 3.65824 8.24199 3.63714 8.63285 3.70257C9.93011 3.91433 10.9083 5.12346 10.9083 6.51319V12.0803L16.3446 13.1767C17.374 13.3867 18.2999 13.9486 18.9658 14.7676C19.6317 15.5866 19.9967 16.6123 19.9991 17.6713L20 17.6722ZM3.222 9.62448C3.37438 9.6245 3.52433 9.58588 3.65805 9.51219C3.79177 9.4385 3.90498 9.33209 3.98726 9.20275C4.06954 9.07341 4.11825 8.92529 4.12893 8.772C4.13961 8.61871 4.1119 8.46518 4.04835 8.32551C3.73248 7.627 3.59543 6.85974 3.64977 6.09398C3.70411 5.32823 3.94809 4.58846 4.35938 3.94241C4.77066 3.29637 5.33611 2.7647 6.00393 2.39608C6.67176 2.02746 7.42062 1.83369 8.18194 1.83249C8.94335 1.83353 9.69232 2.0272 10.3603 2.39575C11.0282 2.7643 11.5938 3.29596 12.0052 3.94203C12.4166 4.5881 12.6606 5.32793 12.715 6.09376C12.7694 6.85958 12.6324 7.62693 12.3164 8.32551C12.2616 8.43548 12.2293 8.55545 12.2214 8.67828C12.2135 8.80112 12.2302 8.92429 12.2706 9.04046C12.3109 9.15663 12.3741 9.26342 12.4562 9.35445C12.5384 9.44549 12.6379 9.5189 12.7488 9.57032C12.8597 9.62175 12.9797 9.65012 13.1018 9.65375C13.2238 9.65738 13.3453 9.6362 13.459 9.59146C13.5727 9.54673 13.6763 9.47935 13.7637 9.39336C13.851 9.30738 13.9203 9.20453 13.9673 9.09096C14.3504 8.25257 14.5477 7.34005 14.5455 6.41693C14.5455 2.87845 11.691 0 8.18194 0C7.11605 0.00147504 6.06757 0.272642 5.13255 0.788658C4.19752 1.30467 3.40586 2.04904 2.83008 2.95356C2.25431 3.85808 1.91283 4.89384 1.83693 5.96594C1.76102 7.03805 1.95313 8.11222 2.39564 9.09004C2.46827 9.24968 2.58485 9.38492 2.73151 9.47966C2.87817 9.57441 3.04873 9.62468 3.22291 9.62448H3.222Z" fill="white"/>
</svg>
