<svg width="24" height="24" viewBox="0 0 24 24" fill="none" xmlns="http://www.w3.org/2000/svg">
<path d="M22.5 3.976H19.414C19.2162 3.97604 19.023 4.03471 18.8585 4.1446C18.6941 4.25448 18.566 4.41065 18.4903 4.59335C18.4147 4.77605 18.3948 4.97708 18.4334 5.17103C18.472 5.36498 18.5672 5.54315 18.707 5.683L19.793 6.769L16.207 10.354C16.0165 10.5361 15.7631 10.6377 15.4995 10.6377C15.2359 10.6377 14.9825 10.5361 14.792 10.354L14.622 10.183C14.0506 9.63707 13.2908 9.33242 12.5005 9.33242C11.7102 9.33242 10.9504 9.63707 10.379 10.183L5.279 15.283C5.09109 15.4714 4.98574 15.7268 4.98612 15.9929C4.98649 16.259 5.09256 16.5141 5.281 16.702C5.46944 16.8899 5.7248 16.9953 5.99091 16.9949C6.25703 16.9945 6.51209 16.8884 6.7 16.7L11.8 11.6C11.9904 11.4177 12.2439 11.3159 12.5075 11.3159C12.7711 11.3159 13.0246 11.4177 13.215 11.6L13.385 11.771C13.9566 12.3165 14.7164 12.6208 15.5065 12.6208C16.2966 12.6208 17.0564 12.3165 17.628 11.771L21.214 8.185L22.3 9.271C22.4403 9.40855 22.6181 9.50171 22.811 9.53885C23.004 9.57598 23.2036 9.55545 23.3849 9.47982C23.5663 9.40418 23.7213 9.2768 23.8307 9.11356C23.9401 8.95033 23.999 8.75849 24 8.562V5.476C24 5.07818 23.842 4.69664 23.5607 4.41534C23.2794 4.13404 22.8978 3.976 22.5 3.976Z" fill="white"/>
<path d="M23 21.976H5C4.20435 21.976 3.44129 21.6599 2.87868 21.0973C2.31607 20.5347 2 19.7716 2 18.976V1C2 0.734784 1.89464 0.48043 1.70711 0.292893C1.51957 0.105357 1.26522 0 1 0C0.734784 0 0.48043 0.105357 0.292893 0.292893C0.105357 0.48043 0 0.734784 0 1V18.976C0.00158786 20.3016 0.528882 21.5724 1.46622 22.5098C2.40356 23.4471 3.67441 23.9744 5 23.976H23C23.2652 23.976 23.5196 23.8706 23.7071 23.6831C23.8946 23.4956 24 23.2412 24 22.976C24 22.7108 23.8946 22.4564 23.7071 22.2689C23.5196 22.0814 23.2652 21.976 23 21.976Z" fill="white"/>
</svg>
