<svg width="24" height="24" viewBox="0 0 24 24" fill="none" xmlns="http://www.w3.org/2000/svg">
<path d="M19.5 15H4.5C2.019 15 0 17.019 0 19.5C0 21.981 2.019 24 4.5 24H19.5C21.981 24 24 21.981 24 19.5C24 17.019 21.981 15 19.5 15ZM19.5 22H4.5C3.121 22 2 20.878 2 19.5C2 18.122 3.121 17 4.5 17H19.5C20.879 17 22 18.122 22 19.5C22 20.878 20.879 22 19.5 22ZM8 13H16C18.206 13 20 11.206 20 9V4C20 1.794 18.206 0 16 0H8C5.794 0 4 1.794 4 4V9C4 11.206 5.794 13 8 13ZM11 2H13V5H11V2ZM6 4C6 2.897 6.897 2 8 2H9V5C9 6.103 9.897 7 11 7H13C14.103 7 15 6.103 15 5V2H16C17.103 2 18 2.897 18 4V9C18 10.103 17.103 11 16 11H8C6.897 11 6 10.103 6 9V4ZM6 19.5C5.99993 19.697 5.96106 19.8922 5.88559 20.0742C5.81012 20.2562 5.69954 20.4216 5.56016 20.5609C5.42078 20.7002 5.25533 20.8106 5.07325 20.886C4.89118 20.9613 4.69605 21.0001 4.499 21C4.30195 20.9999 4.10685 20.9611 3.92482 20.8856C3.7428 20.8101 3.57742 20.6995 3.43813 20.5602C3.29884 20.4208 3.18837 20.2553 3.11303 20.0733C3.03768 19.8912 2.99893 19.696 2.999 19.499C2.99913 19.101 3.15735 18.7194 3.43884 18.4381C3.72033 18.1568 4.10204 17.9989 4.5 17.999C4.89796 17.9991 5.27956 18.1573 5.56087 18.4388C5.84217 18.7203 6.00013 19.102 6 19.5ZM21 19.5C20.9999 19.697 20.9611 19.8922 20.8856 20.0742C20.8101 20.2562 20.6995 20.4216 20.5602 20.5609C20.4208 20.7002 20.2553 20.8106 20.0733 20.886C19.8912 20.9613 19.696 21.0001 19.499 21C19.302 20.9999 19.1068 20.9611 18.9248 20.8856C18.7428 20.8101 18.5774 20.6995 18.4381 20.5602C18.2988 20.4208 18.1884 20.2553 18.113 20.0733C18.0377 19.8912 17.9989 19.696 17.999 19.499C17.9991 19.101 18.1573 18.7194 18.4388 18.4381C18.7203 18.1568 19.102 17.9989 19.5 17.999C19.898 17.9991 20.2796 18.1573 20.5609 18.4388C20.8422 18.7203 21.0001 19.102 21 19.5ZM13.5 19.5C13.4999 19.898 13.3417 20.2796 13.0602 20.5609C12.7787 20.8422 12.397 21.0001 11.999 21C11.601 20.9999 11.2194 20.8417 10.9381 20.5602C10.6568 20.2787 10.4989 19.897 10.499 19.499C10.4991 19.302 10.5379 19.1068 10.6134 18.9248C10.6889 18.7428 10.7995 18.5774 10.9388 18.4381C11.0782 18.2988 11.2437 18.1884 11.4257 18.113C11.6078 18.0377 11.803 17.9989 12 17.999C12.197 17.9991 12.3922 18.0379 12.5742 18.1134C12.7562 18.1889 12.9216 18.2995 13.0609 18.4388C13.2002 18.5782 13.3106 18.7437 13.386 18.9257C13.4613 19.1078 13.5001 19.303 13.5 19.5Z" fill="white"/>
</svg>
