<svg width="24" height="24" viewBox="0 0 24 24" fill="none" xmlns="http://www.w3.org/2000/svg">
<path d="M7.83202 16.1686C7.59968 15.9359 7.3854 15.6858 7.19102 15.4206C7.11368 15.3144 7.058 15.1941 7.02717 15.0664C6.99634 14.9387 6.99096 14.8062 7.01134 14.6764C7.03173 14.5466 7.07747 14.4221 7.14596 14.31C7.21445 14.1979 7.30435 14.1004 7.41052 14.0231C7.5167 13.9457 7.63707 13.8901 7.76476 13.8592C7.89245 13.8284 8.02496 13.823 8.15473 13.8434C8.2845 13.8638 8.40899 13.9095 8.52108 13.978C8.63317 14.0465 8.73068 14.1364 8.80802 14.2426C8.93702 14.4206 9.08202 14.5916 9.24502 14.7536C10.048 15.5566 11.115 15.9986 12.25 15.9986C13.385 15.9986 14.453 15.5566 15.255 14.7536L20.755 9.2536C22.412 7.5966 22.412 4.8996 20.755 3.2426C19.098 1.5856 16.401 1.5856 14.744 3.2426L13.686 4.3006C13.5932 4.39344 13.483 4.46709 13.3617 4.51734C13.2403 4.56758 13.1103 4.59345 12.979 4.59345C12.8477 4.59345 12.7177 4.56758 12.5964 4.51734C12.4751 4.46709 12.3649 4.39344 12.272 4.3006C12.1792 4.20775 12.1055 4.09753 12.0553 3.97622C12.005 3.85492 11.9792 3.7249 11.9792 3.5936C11.9792 3.46229 12.005 3.33228 12.0553 3.21097C12.1055 3.08966 12.1792 2.97944 12.272 2.8866L13.33 1.8286C14.5028 0.657668 16.0923 0 17.7495 0C19.4068 0 20.9963 0.657668 22.169 1.8286C23.3395 3.00161 23.9968 4.59102 23.9968 6.2481C23.9968 7.90517 23.3395 9.49458 22.169 10.6676L16.669 16.1676C15.489 17.3486 13.919 17.9986 12.25 17.9986C10.581 17.9986 9.01102 17.3486 7.83202 16.1686ZM6.25002 23.9986C7.92002 23.9986 9.48902 23.3486 10.669 22.1676L11.727 21.1096C11.8199 21.0168 11.8935 20.9065 11.9438 20.7852C11.994 20.6639 12.0199 20.5339 12.0199 20.4026C12.0199 20.2713 11.994 20.1413 11.9438 20.02C11.8935 19.8987 11.8199 19.7884 11.727 19.6956C11.6342 19.6028 11.524 19.5291 11.4026 19.4789C11.2813 19.4286 11.1513 19.4027 11.02 19.4027C10.8887 19.4027 10.7587 19.4286 10.6374 19.4789C10.5161 19.5291 10.4059 19.6028 10.313 19.6956L9.25402 20.7536C8.45103 21.5566 7.38402 21.9986 6.24902 21.9986C5.11402 21.9986 4.04702 21.5566 3.24402 20.7536C2.44102 19.9506 1.99902 18.8836 1.99902 17.7486C1.99902 16.6136 2.44102 15.5456 3.24402 14.7436L8.74402 9.2436C9.54702 8.4406 10.614 7.9986 11.749 7.9986C12.884 7.9986 13.952 8.4406 14.754 9.2436C14.914 9.4046 15.06 9.5756 15.19 9.7536C15.2672 9.85984 15.3646 9.94983 15.4766 10.0184C15.5886 10.087 15.713 10.1329 15.8428 10.1534C15.9725 10.1739 16.105 10.1687 16.2327 10.138C16.3604 10.1074 16.4808 10.0518 16.587 9.9746C16.6933 9.89738 16.7833 9.79999 16.8519 9.688C16.9205 9.576 16.9663 9.45159 16.9869 9.32187C17.0074 9.19214 17.0021 9.05965 16.9715 8.93195C16.9408 8.80424 16.8852 8.68384 16.808 8.5776C16.615 8.3122 16.4013 8.06243 16.169 7.8306C14.988 6.6486 13.418 5.9986 11.749 5.9986C10.08 5.9986 8.51003 6.6486 7.33002 7.8296L1.83102 13.3296C1.24867 13.9084 0.786975 14.5971 0.472674 15.3556C0.158374 16.1141 -0.00227855 16.9275 2.44133e-05 17.7486C2.44133e-05 19.4176 0.650024 20.9876 1.83102 22.1676C2.40982 22.75 3.09845 23.2117 3.857 23.526C4.61555 23.8403 5.42894 24.001 6.25002 23.9986Z" fill="white"/>
</svg>
