<svg width="16" height="24" viewBox="0 0 16 24" fill="none" xmlns="http://www.w3.org/2000/svg">
<path d="M7.25554 24C6.9285 23.9988 6.60563 23.9265 6.30924 23.788C5.82512 23.572 5.43631 23.1865 5.21577 22.7037C4.99523 22.221 4.95812 21.6742 5.1114 21.166L6.66959 16H2.99821C2.53046 16.0006 2.06908 15.8914 1.65105 15.6811C1.23301 15.4709 0.869955 15.1655 0.590967 14.7893C0.311979 14.4132 0.124821 13.9769 0.0444908 13.5152C-0.035839 13.0536 -0.00710645 12.5795 0.128386 12.131L3.14694 2.13105C3.33094 1.51253 3.71022 0.970473 4.22785 0.586239C4.74548 0.202005 5.37354 -0.00368162 6.01777 4.98892e-05H9.70412C10.1231 0.000401031 10.5358 0.102376 10.9069 0.297259C11.278 0.492142 11.5965 0.77414 11.8351 1.11915C12.0738 1.46416 12.2255 1.86193 12.2773 2.27846C12.3292 2.69499 12.2796 3.1179 12.1327 3.51104L10.4528 8.00003H13.0052C13.5492 7.99999 14.083 8.14844 14.5492 8.42944C15.0154 8.71044 15.3964 9.11336 15.6512 9.59494C15.9061 10.0765 16.0251 10.6185 15.9956 11.1628C15.9661 11.707 15.7891 12.2329 15.4837 12.684L9.09522 22.984C8.89773 23.2939 8.62588 23.5492 8.30451 23.7267C7.98314 23.9041 7.6225 23.9981 7.25554 24ZM6.01777 2.00005C5.8034 1.99984 5.59466 2.06877 5.42244 2.19664C5.25022 2.32451 5.12366 2.50452 5.06149 2.71004L2.04293 12.71C1.99774 12.8594 1.9881 13.0174 2.01477 13.1712C2.04145 13.325 2.1037 13.4704 2.19656 13.5958C2.28941 13.7212 2.41028 13.8231 2.54949 13.8933C2.68869 13.9635 2.84237 14 2.99821 14H8.01417C8.17001 14 8.32369 14.0366 8.4629 14.1068C8.6021 14.177 8.72297 14.2788 8.81582 14.4042C8.90868 14.5296 8.97093 14.675 8.99761 14.8288C9.02429 14.9827 9.01464 15.1406 8.96945 15.29L7.02595 21.732C7.01696 21.7557 7.01299 21.781 7.01428 21.8063C7.01558 21.8317 7.02211 21.8564 7.03347 21.8791C7.04482 21.9018 7.06075 21.9218 7.08025 21.938C7.09975 21.9541 7.12239 21.9661 7.14673 21.973C7.1688 21.9872 7.19358 21.9966 7.21949 22.0005C7.2454 22.0045 7.27185 22.003 7.29715 21.9962C7.32245 21.9893 7.34603 21.9772 7.36637 21.9606C7.38671 21.9441 7.40336 21.9234 7.41525 21.9L13.8037 11.6C13.9154 11.4482 13.982 11.2679 13.9958 11.0798C14.0096 10.8917 13.97 10.7035 13.8816 10.537C13.7997 10.3748 13.6743 10.2387 13.5195 10.1438C13.3647 10.049 13.1866 9.9992 13.0052 10H9.01237C8.85104 10.0001 8.69208 9.96105 8.54912 9.88615C8.40616 9.81124 8.28346 9.70274 8.19151 9.56994C8.09957 9.43713 8.04113 9.28397 8.02119 9.12359C8.00126 8.96321 8.02043 8.80037 8.07705 8.64903L10.2631 2.80904C10.2967 2.7185 10.308 2.62117 10.296 2.52533C10.284 2.42949 10.249 2.33797 10.1942 2.25855C10.1393 2.17912 10.0661 2.11415 9.98075 2.06914C9.89544 2.02414 9.80054 2.00044 9.70412 2.00005H6.01777Z" fill="white"/>
<path d="M6.01465 0.5H9.7041C10.0421 0.500348 10.3754 0.582986 10.6748 0.740234C10.9741 0.897495 11.2312 1.12489 11.4238 1.40332C11.6165 1.6819 11.7393 2.00339 11.7812 2.33984C11.8179 2.63432 11.7916 2.93305 11.7051 3.21582L11.6641 3.33594L9.98438 7.8252L9.73145 8.5H13.0049C13.4579 8.49997 13.9027 8.62344 14.291 8.85742C14.6793 9.09148 14.9966 9.42774 15.209 9.8291C15.4213 10.2304 15.5207 10.6821 15.4961 11.1357C15.4715 11.5894 15.3238 12.0274 15.0693 12.4033L15.0645 12.4121L15.0586 12.4209L8.67383 22.7148C8.52121 22.9543 8.31066 23.152 8.0625 23.2891C7.81497 23.4257 7.53737 23.4973 7.25488 23.499C7.0648 23.4981 6.87647 23.4674 6.69727 23.4062L6.52051 23.335L6.5127 23.3311C6.14016 23.1648 5.84087 22.868 5.6709 22.4961C5.50091 22.124 5.47174 21.7023 5.58984 21.3105L7.14844 16.1445L7.34277 15.5H2.99805C2.60862 15.5005 2.2241 15.4094 1.87598 15.2344C1.52779 15.0593 1.22467 14.8046 0.992188 14.4912C0.759875 14.1779 0.604067 13.8143 0.537109 13.4297C0.470144 13.0449 0.494478 12.6493 0.607422 12.2754L3.62598 2.27539V2.27344C3.77918 1.75852 4.09475 1.307 4.52539 0.987305C4.95604 0.667638 5.4789 0.496945 6.01465 0.5ZM6.01758 1.5C5.69585 1.49983 5.38234 1.60313 5.12402 1.79492C4.89798 1.96278 4.72437 2.19059 4.62207 2.45117L4.58301 2.56543L1.56445 12.5654C1.49673 12.7894 1.48248 13.0263 1.52246 13.2568C1.56248 13.4873 1.65569 13.7055 1.79492 13.8936C1.93417 14.0815 2.11534 14.2345 2.32422 14.3398C2.53316 14.4452 2.76404 14.5 2.99805 14.5H8.01367C8.09123 14.5 8.16794 14.5188 8.2373 14.5537C8.30673 14.5887 8.36764 14.6395 8.41406 14.7021C8.46033 14.7647 8.49152 14.8372 8.50488 14.9141C8.51154 14.9525 8.51405 14.9916 8.51172 15.0303L8.49121 15.1455L6.54688 21.5879H6.54883C6.52342 21.6667 6.51041 21.7492 6.51465 21.832C6.51949 21.9264 6.54458 22.0191 6.58691 22.1035C6.62924 22.1878 6.68805 22.263 6.76074 22.3232C6.8149 22.3681 6.87738 22.4005 6.94238 22.4268C7.00605 22.4586 7.07288 22.4842 7.14355 22.4951C7.23851 22.5097 7.33594 22.5037 7.42871 22.4785C7.52121 22.4533 7.60734 22.409 7.68164 22.3486C7.74516 22.2969 7.7965 22.2325 7.83789 22.1621L7.83984 22.1631L14.2285 11.8633L14.2266 11.8623C14.3803 11.6415 14.4745 11.385 14.4941 11.1162C14.5145 10.8375 14.4565 10.5591 14.3271 10.3115H14.3281C14.2044 10.0666 14.0143 9.86116 13.7803 9.71777C13.5469 9.57481 13.2786 9.49912 13.0049 9.5H9.01172C8.93151 9.5 8.85242 9.48063 8.78125 9.44336C8.70995 9.406 8.64851 9.35156 8.60254 9.28516C8.55662 9.21878 8.52756 9.14181 8.51758 9.06152C8.50767 8.98134 8.51665 8.89984 8.54492 8.82422L10.7314 2.98438V2.9834C10.793 2.8175 10.814 2.63845 10.792 2.46289C10.77 2.28751 10.7059 2.12008 10.6055 1.97461C10.5049 1.829 10.3705 1.70955 10.2139 1.62695C10.0573 1.54439 9.88308 1.50072 9.70605 1.5H6.01758Z" stroke="white" stroke-opacity="0.3"/>
</svg>
