<svg width="20" height="24" viewBox="0 0 20 24" fill="none" xmlns="http://www.w3.org/2000/svg">
<path d="M17 8.424V7C17 5.14348 16.2625 3.36301 14.9497 2.05025C13.637 0.737498 11.8565 0 10 0C8.14348 0 6.36301 0.737498 5.05025 2.05025C3.7375 3.36301 3 5.14348 3 7V8.424C2.10936 8.81271 1.35129 9.45252 0.818499 10.2652C0.285705 11.0779 0.00127838 12.0282 0 13V19C0.00158786 20.3256 0.528882 21.5964 1.46622 22.5338C2.40356 23.4711 3.67441 23.9984 5 24H15C16.3256 23.9984 17.5964 23.4711 18.5338 22.5338C19.4711 21.5964 19.9984 20.3256 20 19V13C19.9987 12.0282 19.7143 11.0779 19.1815 10.2652C18.6487 9.45252 17.8906 8.81271 17 8.424ZM5 7C5 5.67392 5.52678 4.40215 6.46447 3.46447C7.40215 2.52678 8.67392 2 10 2C11.3261 2 12.5979 2.52678 13.5355 3.46447C14.4732 4.40215 15 5.67392 15 7V8H5V7ZM18 19C18 19.7956 17.6839 20.5587 17.1213 21.1213C16.5587 21.6839 15.7956 22 15 22H5C4.20435 22 3.44129 21.6839 2.87868 21.1213C2.31607 20.5587 2 19.7956 2 19V13C2 12.2044 2.31607 11.4413 2.87868 10.8787C3.44129 10.3161 4.20435 10 5 10H15C15.7956 10 16.5587 10.3161 17.1213 10.8787C17.6839 11.4413 18 12.2044 18 13V19Z" fill="white"/>
<path d="M10 14C9.73478 14 9.48043 14.1054 9.29289 14.2929C9.10536 14.4804 9 14.7348 9 15V17C9 17.2652 9.10536 17.5196 9.29289 17.7071C9.48043 17.8946 9.73478 18 10 18C10.2652 18 10.5196 17.8946 10.7071 17.7071C10.8946 17.5196 11 17.2652 11 17V15C11 14.7348 10.8946 14.4804 10.7071 14.2929C10.5196 14.1054 10.2652 14 10 14Z" fill="white"/>
<path d="M10 0.5C11.7239 0.5 13.3777 1.18433 14.5967 2.40332C15.8157 3.62231 16.5 5.27609 16.5 7V8.75098L16.7998 8.88184C17.6014 9.23166 18.2842 9.80767 18.7637 10.5391C19.1832 11.1791 19.431 11.9142 19.4873 12.6738L19.5 13.001V19C19.4984 20.193 19.0242 21.3371 18.1807 22.1807C17.3369 23.0244 16.1922 23.4986 14.999 23.5H5.00098C3.80778 23.4986 2.66305 23.0244 1.81934 22.1807C1.02839 21.3897 0.562311 20.3345 0.505859 19.2227L0.5 18.999V13.001C0.501151 12.1264 0.756814 11.2705 1.23633 10.5391C1.71584 9.80767 2.39864 9.23166 3.2002 8.88184L3.5 8.75098V7C3.5 5.27609 4.18433 3.62231 5.40332 2.40332C6.62231 1.18433 8.27609 0.5 10 0.5ZM5 9.5C4.07174 9.5 3.18177 9.86901 2.52539 10.5254C1.86901 11.1818 1.5 12.0717 1.5 13V19C1.5 19.9283 1.86901 20.8182 2.52539 21.4746C3.18177 22.131 4.07174 22.5 5 22.5H15C15.9283 22.5 16.8182 22.131 17.4746 21.4746C18.131 20.8182 18.5 19.9283 18.5 19V13C18.5 12.0717 18.131 11.1818 17.4746 10.5254C16.8182 9.86901 15.9283 9.5 15 9.5H5ZM10 14.5C10.1326 14.5 10.2597 14.5527 10.3535 14.6465C10.4473 14.7403 10.5 14.8674 10.5 15V17C10.5 17.1326 10.4473 17.2597 10.3535 17.3535C10.2597 17.4473 10.1326 17.5 10 17.5C9.86739 17.5 9.74025 17.4473 9.64648 17.3535C9.55272 17.2597 9.5 17.1326 9.5 17V15C9.5 14.8674 9.55272 14.7403 9.64648 14.6465C9.74025 14.5527 9.86739 14.5 10 14.5ZM10 1.5C8.54131 1.5 7.14278 2.07988 6.11133 3.11133C5.07988 4.14278 4.5 5.54131 4.5 7V8.5H15.5V7C15.5 5.54131 14.9201 4.14278 13.8887 3.11133C12.8572 2.07988 11.4587 1.5 10 1.5Z" stroke="white" stroke-opacity="0.3"/>
</svg>
