<svg width="24" height="24" viewBox="0 0 24 24" fill="none" xmlns="http://www.w3.org/2000/svg">
<path d="M19 6V4C19 2.93913 18.5786 1.92172 17.8284 1.17157C17.0783 0.421427 16.0609 0 15 0H9C7.93913 0 6.92172 0.421427 6.17157 1.17157C5.42143 1.92172 5 2.93913 5 4V6C3.67441 6.00159 2.40356 6.52888 1.46622 7.46622C0.528882 8.40356 0.00158786 9.67441 0 11V16C0.00158786 17.3256 0.528882 18.5964 1.46622 19.5338C2.40356 20.4711 3.67441 20.9984 5 21C5 21.7956 5.31607 22.5587 5.87868 23.1213C6.44129 23.6839 7.20435 24 8 24H16C16.7956 24 17.5587 23.6839 18.1213 23.1213C18.6839 22.5587 19 21.7956 19 21C20.3256 20.9984 21.5964 20.4711 22.5338 19.5338C23.4711 18.5964 23.9984 17.3256 24 16V11C23.9984 9.67441 23.4711 8.40356 22.5338 7.46622C21.5964 6.52888 20.3256 6.00159 19 6ZM7 4C7 3.46957 7.21071 2.96086 7.58579 2.58579C7.96086 2.21071 8.46957 2 9 2H15C15.5304 2 16.0391 2.21071 16.4142 2.58579C16.7893 2.96086 17 3.46957 17 4V6H7V4ZM17 21C17 21.2652 16.8946 21.5196 16.7071 21.7071C16.5196 21.8946 16.2652 22 16 22H8C7.73478 22 7.48043 21.8946 7.29289 21.7071C7.10536 21.5196 7 21.2652 7 21V17C7 16.7348 7.10536 16.4804 7.29289 16.2929C7.48043 16.1054 7.73478 16 8 16H16C16.2652 16 16.5196 16.1054 16.7071 16.2929C16.8946 16.4804 17 16.7348 17 17V21ZM22 16C22 16.7956 21.6839 17.5587 21.1213 18.1213C20.5587 18.6839 19.7956 19 19 19V17C19 16.2044 18.6839 15.4413 18.1213 14.8787C17.5587 14.3161 16.7956 14 16 14H8C7.20435 14 6.44129 14.3161 5.87868 14.8787C5.31607 15.4413 5 16.2044 5 17V19C4.20435 19 3.44129 18.6839 2.87868 18.1213C2.31607 17.5587 2 16.7956 2 16V11C2 10.2044 2.31607 9.44129 2.87868 8.87868C3.44129 8.31607 4.20435 8 5 8H19C19.7956 8 20.5587 8.31607 21.1213 8.87868C21.6839 9.44129 22 10.2044 22 11V16Z" fill="white"/>
<path d="M18 10H16C15.7348 10 15.4804 10.1054 15.2929 10.2929C15.1054 10.4804 15 10.7348 15 11C15 11.2652 15.1054 11.5196 15.2929 11.7071C15.4804 11.8946 15.7348 12 16 12H18C18.2652 12 18.5196 11.8946 18.7071 11.7071C18.8946 11.5196 19 11.2652 19 11C19 10.7348 18.8946 10.4804 18.7071 10.2929C18.5196 10.1054 18.2652 10 18 10Z" fill="white"/>
<path d="M8 15.5C7.60218 15.5 7.22076 15.6581 6.93945 15.9395C6.65815 16.2208 6.5 16.6022 6.5 17V21C6.5 21.3978 6.65815 21.7792 6.93945 22.0605C7.22076 22.3419 7.60218 22.5 8 22.5H16C16.3978 22.5 16.7792 22.3419 17.0605 22.0605C17.3419 21.7792 17.5 21.3978 17.5 21V17C17.5 16.6022 17.3419 16.2208 17.0605 15.9395C16.7792 15.6581 16.3978 15.5 16 15.5H8ZM5 7.5C4.07174 7.5 3.18177 7.86901 2.52539 8.52539C1.86901 9.18177 1.5 10.0717 1.5 11V16C1.5 16.9283 1.86901 17.8182 2.52539 18.4746C3.18177 19.131 4.07174 19.5 5 19.5H5.5V17C5.5 16.337 5.76358 15.7013 6.23242 15.2324C6.70126 14.7636 7.33696 14.5 8 14.5H16C16.663 14.5 17.2987 14.7636 17.7676 15.2324C18.2364 15.7013 18.5 16.337 18.5 17V19.5H19C19.9283 19.5 20.8182 19.131 21.4746 18.4746C22.131 17.8182 22.5 16.9283 22.5 16V11C22.5 10.0717 22.131 9.18177 21.4746 8.52539C20.8182 7.86901 19.9283 7.5 19 7.5H5ZM16 10.5H18C18.1326 10.5 18.2597 10.5527 18.3535 10.6465C18.4473 10.7403 18.5 10.8674 18.5 11C18.5 11.1326 18.4473 11.2597 18.3535 11.3535C18.2597 11.4473 18.1326 11.5 18 11.5H16C15.8674 11.5 15.7403 11.4473 15.6465 11.3535C15.5527 11.2597 15.5 11.1326 15.5 11C15.5 10.8674 15.5527 10.7403 15.6465 10.6465C15.7403 10.5527 15.8674 10.5 16 10.5ZM9 1.5C8.33696 1.5 7.70126 1.76358 7.23242 2.23242C6.76358 2.70126 6.5 3.33696 6.5 4V6.5H17.5V4C17.5 3.33696 17.2364 2.70126 16.7676 2.23242C16.2987 1.76358 15.663 1.5 15 1.5H9ZM5.5 20.501L5.00098 20.5C3.80778 20.4986 2.66305 20.0244 1.81934 19.1807C1.02839 18.3897 0.562311 17.3345 0.505859 16.2227L0.5 15.999V11.001C0.501429 9.80778 0.975619 8.66305 1.81934 7.81934C2.66305 6.97562 3.80778 6.50143 5.00098 6.5L5.5 6.49902V4C5.5 3.07174 5.86901 2.18177 6.52539 1.52539C7.18177 0.869013 8.07174 0.5 9 0.5H15C15.9283 0.5 16.8182 0.869013 17.4746 1.52539C18.131 2.18177 18.5 3.07174 18.5 4V6.49902L18.999 6.5C20.1922 6.50143 21.3369 6.97562 22.1807 7.81934C22.9716 8.61028 23.4377 9.66548 23.4941 10.7773L23.5 11.001V16C23.4984 17.193 23.0242 18.3371 22.1807 19.1807C21.3369 20.0244 20.1922 20.4986 18.999 20.5L18.5 20.501V21C18.5 21.663 18.2364 22.2987 17.7676 22.7676C17.2987 23.2364 16.663 23.5 16 23.5H8C7.33696 23.5 6.70126 23.2364 6.23242 22.7676C5.76358 22.2987 5.5 21.663 5.5 21V20.501Z" stroke="white" stroke-opacity="0.3"/>
</svg>
