<svg width="20" height="17" viewBox="0 0 20 17" fill="none" xmlns="http://www.w3.org/2000/svg">
<path d="M19.6084 0.310456C19.4502 0.168593 19.2562 0.0705543 19.0464 0.0264118C18.8367 -0.0177306 18.6187 -0.00638611 18.4149 0.0592801L0.829348 5.73707C0.350088 5.8918 0.0250871 6.31082 0.00137608 6.80449C-0.0222959 7.29819 0.261104 7.74526 0.723371 7.9434L5.07241 9.80712L6.38457 15.7678C6.43906 16.0154 6.56738 16.236 6.83922 16.3038C7.11418 16.3724 7.30844 16.2252 7.51359 16.0748L10.741 13.7079L14.514 16.7319C14.7337 16.9081 15.0023 17 15.2762 17C15.4089 16.9999 15.5407 16.9785 15.6663 16.9366C16.0634 16.8047 16.3578 16.4873 16.4537 16.0875L19.9681 1.45305C20.0171 1.24847 20.0096 1.03481 19.9464 0.834011C19.8832 0.633208 19.7665 0.452503 19.6084 0.310456ZM7.79473 10.8751C7.79258 10.88 7.79047 10.8857 7.78848 10.8924L7.06098 13.3819L6.2491 9.69383L11.8318 6.65581L7.92864 10.6531C7.86742 10.7162 7.82164 10.7921 7.79473 10.8751ZM8.02563 14.262L8.67212 12.0497L9.80458 12.9574L8.02563 14.262ZM18.8246 1.18959L15.3103 15.824C15.3086 15.8313 15.3062 15.8413 15.2891 15.847C15.272 15.8527 15.2637 15.8462 15.2579 15.8415L11.1293 12.5325L11.129 12.5322L9.21614 10.9991L15.3616 4.7054C15.4587 4.60593 15.5162 4.47564 15.5236 4.3382C15.531 4.20075 15.4879 4.06526 15.402 3.95631C15.3162 3.84735 15.1932 3.77216 15.0556 3.74439C14.918 3.71663 14.7747 3.73813 14.6519 3.80499L5.55218 8.75692L1.19423 6.88935C1.18095 6.88368 1.17365 6.88051 1.1747 6.85851C1.17576 6.83659 1.18333 6.8341 1.19708 6.82966L18.7826 1.1519C18.7911 1.14919 18.8007 1.14605 18.8149 1.15868C18.829 1.17138 18.8267 1.18102 18.8246 1.18959Z" fill="#CACACA"/>
</svg>
