<svg width="20" height="20" viewBox="0 0 20 20" fill="none" xmlns="http://www.w3.org/2000/svg">
<path fill-rule="evenodd" clip-rule="evenodd" d="M17.0919 2.9072C15.2118 1.0322 12.7082 0 10.0428 0C4.55497 0 0.0856735 4.44602 0.0856735 9.91004C0.0856735 11.6572 0.542599 13.3617 1.41361 14.8627L0 20L5.27844 18.6222C6.73489 19.4129 8.3722 19.8295 10.0381 19.8295C15.5259 19.8295 19.9952 15.3835 20 9.91951C20 7.27273 18.9672 4.7822 17.0871 2.9072H17.0919ZM10.0476 18.1534C8.56259 18.1534 7.10614 17.7557 5.83532 17.0076L5.53546 16.8277L2.40362 17.6468L3.24131 14.607L3.04617 14.2945C2.21799 12.983 1.7801 11.4678 1.7801 9.91004C1.7801 5.36932 5.49738 1.67614 10.0619 1.67614C12.2751 1.67614 14.3503 2.53314 15.9162 4.09091C17.4822 5.64867 18.3389 7.7178 18.3389 9.91951C18.3389 14.4602 14.6216 18.1581 10.0571 18.1581L10.0476 18.1534ZM14.5883 11.9839C14.3408 11.8608 13.1176 11.2595 12.8891 11.179C12.6606 11.0985 12.4941 11.0559 12.3275 11.3021C12.1609 11.5483 11.6849 12.107 11.5374 12.2727C11.3898 12.4384 11.247 12.4574 10.9995 12.3343C10.752 12.2112 9.94764 11.9508 8.99572 11.1032C8.25797 10.4451 7.75821 9.63542 7.61066 9.3892C7.46787 9.14299 7.61066 9.01989 7.72013 8.88258C7.99143 8.55114 8.25797 8.20076 8.34365 8.03504C8.42456 7.86932 8.38648 7.72727 8.32461 7.59943C8.26273 7.47633 7.76297 6.25473 7.55831 5.76231C7.3584 5.27936 7.14898 5.34564 6.99667 5.33617C6.85388 5.3267 6.68729 5.3267 6.5207 5.3267C6.35412 5.3267 6.08282 5.38826 5.85912 5.63447C5.63065 5.88068 4.9881 6.48201 4.9881 7.69886C4.9881 8.91572 5.87815 10.0947 6.00666 10.2604C6.13517 10.4261 7.76297 12.9261 10.257 14.0009C10.852 14.2566 11.3137 14.4081 11.6754 14.5218C12.2703 14.7112 12.8129 14.6828 13.2413 14.6212C13.7173 14.5502 14.712 14.0199 14.9215 13.4422C15.1309 12.8646 15.1309 12.3674 15.0643 12.2633C15.0024 12.1591 14.8358 12.0975 14.5883 11.9744V11.9839Z" fill="white"/>
</svg>
